<?xml version="1.0" encoding="UTF-8"?>
<!DOCTYPE svg PUBLIC "-//W3C//DTD SVG 1.1//EN" "http://www.w3.org/Graphics/SVG/1.1/DTD/svg11.dtd">
<!-- Creator: CorelDRAW 2019 (64-Bit) -->
<svg xmlns="http://www.w3.org/2000/svg" xml:space="preserve" width="4.24121in" height="4.52454in" version="1.1" style="shape-rendering:geometricPrecision; text-rendering:geometricPrecision; image-rendering:optimizeQuality; fill-rule:evenodd; clip-rule:evenodd"
viewBox="0 0 4235.61 4518.56"
 xmlns:xlink="http://www.w3.org/1999/xlink"
 xmlns:xodm="http://www.corel.com/coreldraw/odm/2003">
 <defs>
  <style type="text/css">
   <![CDATA[
    .str0 {stroke:#2B2A29;stroke-width:7.86;stroke-miterlimit:2.61313}
    .fil3 {fill:none}
    .fil0 {fill:black}
    .fil1 {fill:#484F57}
    .fil2 {fill:#6BE5E8}
    .fil4 {fill:#FEFEFE;fill-rule:nonzero}
   ]]>
  </style>
 </defs>
 <g id="Layer_x0020_1">
  <metadata id="CorelCorpID_0Corel-Layer"/>
  <g id="_2283491757840">
   <polygon class="fil0 str0" points="3.93,3.93 4231.67,3.93 4231.67,4514.63 3.93,4514.63 "/>
   <g>
    <g>
     <path class="fil1" d="M661.39 3267.76l2912.82 0c153.34,0 278.8,125.46 278.8,278.8l0 0c0,153.34 -125.46,278.8 -278.8,278.8l-2912.82 0c-153.34,0 -278.8,-125.46 -278.8,-278.8l0 0c0,-153.34 125.46,-278.8 278.8,-278.8z"/>
     <path class="fil2" d="M661.39 3267.76l2321.93 0c153.34,0 278.8,125.46 278.8,278.8l0 0c0,153.34 -125.46,278.8 -278.8,278.8l-2321.93 0c-153.34,0 -278.8,-125.46 -278.8,-278.8l0 0c0,-153.34 125.46,-278.8 278.8,-278.8z"/>
     <path class="fil3" d="M405.82 2135.56c137.79,-818.66 849.97,-1442.36 1707.82,-1442.36 849.36,0 1555.92,611.42 1703.56,1418.13"/>
     <path class="fil3" d="M1059.19 2245.88c85.27,-505.28 524.91,-890.17 1054.45,-890.17 535.55,0 979.16,393.67 1057.22,907.42"/>
     <path class="fil3" d="M1059.18 2245.88c-56.14,114.76 -174.05,193.8 -310.42,193.8 -176.79,0 -322.55,-132.82 -342.94,-304.12"/>
     <path class="fil3" d="M3817.21 2111.33c-8.87,182.84 -159.92,328.36 -344.96,328.36 -129.43,0 -242.23,-71.2 -301.38,-176.56"/>
     <path class="fil3" d="M3345.43 1207.65c34.18,53.58 53.99,117.23 53.99,185.5 0,190.75 -154.63,345.38 -345.38,345.38 -54.02,0 -105.16,-12.4 -150.69,-34.52"/>
     <path class="fil1" d="M2113.64 1355.71c312.76,0 594.17,134.26 789.72,348.29 137.2,151.78 220.21,319.07 260.38,519.46 10.1,50.37 22.84,72.69 59.06,110.05 67.6,69.73 152.81,104.49 249.45,106.17 204.3,-6.9 379.63,-177.29 334.33,-387.71 -34.19,-158.8 -103.78,-335.83 -183.72,-477.19 -76.78,-135.78 -168.56,-255.57 -277.42,-367.13 -313.96,-317.63 -749.89,-514.45 -1231.79,-514.45 -857.85,0 -1570.03,623.69 -1707.82,1442.36 20.39,171.3 166.15,304.12 342.94,304.12 136.37,0 254.28,-79.04 310.43,-193.8 85.27,-505.28 524.91,-890.17 1054.45,-890.17z"/>
     <path class="fil2" d="M2113.64 1355.71c312.76,0 594.17,134.26 789.71,348.3 45.53,22.11 96.67,34.52 150.69,34.52 190.75,0 345.38,-154.63 345.38,-345.38 0,-68.27 -19.81,-131.92 -53.99,-185.5 -313.96,-317.63 -749.89,-514.45 -1231.79,-514.45 -821.79,5.59 -1523.31,567.74 -1695.18,1373.04 -16.93,79.31 -11.82,119.41 25.77,191.25 61.85,114.55 175.09,179.97 304.53,182.2 131.15,-4.38 272.13,-77.38 312.24,-209.14 17.7,-58.15 24.69,-108.07 46.4,-168.53 153.79,-428.26 553.52,-701.34 1006.24,-706.3z"/>
    </g>
    <path class="fil4" d="M796.56 3111.77c-51.43,0 -102,-8.08 -151.73,-24.25 -5.1,-48.05 -9.35,-84.1 -12.75,-108.12l3.83 -10.49c25.5,10.05 50.9,17.58 76.18,22.61 25.29,5.02 48.35,7.54 69.17,7.54 22.95,0 39.84,-2.95 50.68,-8.85 10.84,-5.9 16.26,-15.4 16.26,-28.51 0,-13.55 -5.53,-24.14 -16.57,-31.78 -11.05,-7.64 -30.82,-15.62 -59.29,-23.92 -51,-13.98 -87.87,-32.88 -110.61,-56.68 -22.74,-23.81 -34.11,-55.81 -34.11,-96 0,-48.49 15.09,-84.54 45.27,-108.13 30.18,-23.59 76.29,-35.39 138.34,-35.39 46.33,0 91.8,6.55 136.43,19.66 3.4,34.95 7.22,69.46 11.47,103.54l-3.83 10.49c-18.7,-6.12 -39.2,-11.14 -61.52,-15.07 -22.31,-3.93 -42.4,-5.9 -60.24,-5.9 -22.53,0 -39.1,2.84 -49.73,8.52 -10.62,5.68 -15.94,15.07 -15.94,28.18 0,12.67 6.27,23.37 18.81,32.11 12.54,8.74 33.47,17.04 62.79,24.9 48.45,13.1 83.83,31.56 106.15,55.38 22.31,23.81 33.47,54.5 33.47,92.07 0,49.36 -16.26,86.39 -48.77,111.07 -32.52,24.68 -80.43,37.03 -143.76,37.03zm411.19 0c-49.3,0 -85,-10.92 -107.1,-32.77 -22.1,-21.84 -33.15,-58.1 -33.15,-108.78l0 -136.96 -54.19 0c0.42,-10.48 0.64,-25.99 0.64,-46.53 0,-20.53 -0.22,-35.82 -0.64,-45.87l54.19 0c-0.42,-20.53 -1.49,-38.22 -3.19,-53.08l1.91 -9.83 125.59 -28.18 4.46 9.83 0 81.26 107.1 0 1.91 7.86 -2.55 20.97c-3.4,27.53 -5.52,48.72 -6.37,63.57l-100.09 0 0 111.4c0,22.28 3.83,37.68 11.48,46.2 7.65,8.52 20.4,12.78 38.25,12.78 9.35,0 18.59,-0.87 27.73,-2.62 9.14,-1.75 20.72,-4.59 34.75,-8.52l3.18 8.52c-4.25,27.09 -8.29,58.76 -12.11,95.02 -29.32,10.48 -59.92,15.73 -91.8,15.73zm343.62 0c-40.8,0 -75.86,-7.76 -105.19,-23.26 -29.33,-15.51 -51.64,-37.68 -66.94,-66.51 -15.3,-28.83 -22.95,-62.47 -22.95,-100.92 0,-38.45 7.65,-72.09 22.95,-100.92 15.3,-28.83 37.61,-51 66.94,-66.51 29.33,-15.51 64.39,-23.26 105.19,-23.26 40.38,0 75.23,7.76 104.55,23.26 29.32,15.51 51.64,37.68 66.94,66.51 15.3,28.83 22.95,62.47 22.95,100.92 0,38.45 -7.65,72.09 -22.95,100.92 -15.3,28.83 -37.61,51 -66.94,66.51 -29.33,15.51 -64.18,23.26 -104.55,23.26zm0 -104.85c19.98,0 35.06,-7.21 45.27,-21.62 10.2,-14.42 15.3,-35.83 15.3,-64.22 0,-57.23 -20.19,-85.85 -60.57,-85.85 -40.8,0 -61.2,28.62 -61.2,85.85 0,28.4 5.21,49.8 15.62,64.22 10.41,14.41 25.6,21.62 45.58,21.62zm465.38 -303.41c-14.87,0 -25.61,3.93 -32.19,11.8 -6.59,7.86 -9.88,19.44 -9.88,34.73l0 17.69 98.18 0 2.55 8.52 -1.91 19.01c-3.4,22.71 -5.74,44.34 -7.01,64.87l-91.8 0 0 9.83c0,119.27 1.49,193.75 4.47,223.46l-2.55 7.86 -131.96 0 -1.91 -7.86c2.55,-25.78 3.83,-100.26 3.83,-223.46l0 -9.83 -53.55 0c0.85,-20.97 1.27,-36.48 1.27,-46.53 0,-10.48 -0.42,-25.77 -1.27,-45.87l53.55 0 0 -22.93c0,-47.62 10.63,-83.22 31.88,-106.82 21.25,-23.59 54.83,-35.39 100.73,-35.39 17,0 34.42,1.42 52.27,4.26 17.85,2.84 33.79,6.44 47.81,10.81 1.7,20.1 5.1,50.24 10.2,90.44l-3.82 7.86c-24.23,-8.3 -47.18,-12.45 -68.85,-12.45zm193.17 -3.28c-23.8,0 -43.14,-4.48 -58.01,-13.43 -14.88,-8.96 -22.32,-21.74 -22.32,-38.34 0,-16.6 7.44,-29.38 22.32,-38.34 14.87,-8.96 34.21,-13.43 58.01,-13.43 24.23,0 43.67,4.48 58.34,13.43 14.66,8.95 21.99,21.73 21.99,38.34 0,16.6 -7.33,29.38 -21.99,38.34 -14.67,8.96 -34.11,13.43 -58.34,13.43zm-68.21 393.18c1.27,-11.8 2.34,-34.08 3.19,-66.84 0.85,-32.77 1.27,-67.93 1.27,-105.51 0,-37.57 -0.42,-72.74 -1.27,-105.51 -0.85,-32.76 -1.91,-55.05 -3.19,-66.84l2.55 -7.86 131.97 0 1.91 7.86c-0.85,12.23 -1.7,34.95 -2.55,68.15 -0.85,33.2 -1.27,67.93 -1.27,104.19 0,36.26 0.42,70.99 1.27,104.19 0.85,33.2 1.7,55.92 2.55,68.15l-1.91 7.86 -131.97 0 -2.55 -7.86zm212.29 0c2.98,-27.52 4.46,-82.79 4.46,-165.79 0,-39.76 -0.42,-76.67 -1.27,-110.75 -0.85,-34.08 -1.91,-56.79 -3.18,-68.15l2.55 -7.86 123.68 0 3.82 7.86c-1.27,17.91 -1.7,34.29 -1.27,49.15l3.19 0.66c31.45,-45.44 72.25,-68.15 122.4,-68.15 39.52,0 68,11.36 85.42,34.08 17.43,22.72 26.14,56.57 26.14,101.57l0 61.6c0,83 1.49,138.27 4.46,165.79l-2.55 7.86 -131.33 0 -2.55 -7.86c2.97,-38.01 4.46,-93.27 4.46,-165.79l0 -27.52c0,-37.57 -15.09,-56.36 -45.26,-56.36 -19.13,0 -34,7.43 -44.63,22.28 -10.62,14.85 -15.94,34.73 -15.94,59.63 0,73.83 1.49,129.75 4.47,167.76l-2.55 7.86 -131.97 0 -2.55 -7.86zm520.21 13.1c-21.25,0 -38.78,-6.22 -52.59,-18.68 -13.81,-12.45 -20.72,-29.16 -20.72,-50.13 0,-20.97 6.7,-37.57 20.08,-49.8 13.39,-12.23 31.13,-18.35 53.23,-18.35 20.83,0 38.15,6.22 51.96,18.68 13.81,12.45 20.72,28.94 20.72,49.47 0,20.97 -6.8,37.68 -20.4,50.13 -13.6,12.45 -31.03,18.68 -52.28,18.68zm219.3 -406.29c-23.8,0 -43.14,-4.48 -58.01,-13.43 -14.88,-8.96 -22.32,-21.74 -22.32,-38.34 0,-16.6 7.44,-29.38 22.32,-38.34 14.87,-8.96 34.21,-13.43 58.01,-13.43 24.23,0 43.67,4.48 58.34,13.43 14.66,8.95 21.99,21.73 21.99,38.34 0,16.6 -7.33,29.38 -21.99,38.34 -14.67,8.96 -34.11,13.43 -58.34,13.43zm-68.21 393.18c1.27,-11.8 2.34,-34.08 3.19,-66.84 0.85,-32.77 1.27,-67.93 1.27,-105.51 0,-37.57 -0.42,-72.74 -1.27,-105.51 -0.85,-32.76 -1.91,-55.05 -3.19,-66.84l2.55 -7.86 131.97 0 1.91 7.86c-0.85,12.23 -1.7,34.95 -2.55,68.15 -0.85,33.2 -1.27,67.93 -1.27,104.19 0,36.26 0.42,70.99 1.27,104.19 0.85,33.2 1.7,55.92 2.55,68.15l-1.91 7.86 -131.97 0 -2.55 -7.86zm212.29 0c2.98,-27.52 4.46,-82.79 4.46,-165.79 0,-39.76 -0.42,-76.67 -1.27,-110.75 -0.85,-34.08 -1.91,-56.79 -3.18,-68.15l2.55 -7.86 123.68 0 3.82 7.86c-1.27,17.91 -1.7,34.29 -1.27,49.15l3.19 0.66c31.45,-45.44 72.25,-68.15 122.4,-68.15 39.52,0 68,11.36 85.42,34.08 17.43,22.72 26.14,56.57 26.14,101.57l0 61.6c0,83 1.49,138.27 4.46,165.79l-2.55 7.86 -131.33 0 -2.55 -7.86c2.97,-38.01 4.46,-93.27 4.46,-165.79l0 -27.52c0,-37.57 -15.09,-56.36 -45.26,-56.36 -19.13,0 -34,7.43 -44.63,22.28 -10.62,14.85 -15.94,34.73 -15.94,59.63 0,73.83 1.49,129.75 4.47,167.76l-2.55 7.86 -131.97 0 -2.55 -7.86z"/>
   </g>
  </g>
 </g>
</svg>
